<?xml version="1.0" standalone="no"?>
<!DOCTYPE svg PUBLIC "-//W3C//DTD SVG 20010904//EN"
 "http://www.w3.org/TR/2001/REC-SVG-20010904/DTD/svg10.dtd">
<svg version="1.0" xmlns="http://www.w3.org/2000/svg"
 width="50.000000pt" height="50.000000pt" viewBox="0 0 612.000000 398.000000"
 preserveAspectRatio="xMidYMid meet">

<g transform="translate(0.000000,398.000000) scale(0.100000,-0.100000)"
fill="#000000" stroke="none">
<path d="M1840 3276 c-338 -78 -563 -295 -626 -606 -20 -101 -15 -291 10 -385
56 -207 204 -383 401 -480 145 -72 231 -90 420 -90 92 0 186 6 220 13 114 25
272 83 356 131 l84 48 3 341 2 342 -255 0 -255 0 0 -190 0 -189 -37 -10 c-55
-16 -153 -13 -205 5 -64 21 -122 75 -155 142 -25 51 -28 68 -28 157 0 89 3
106 28 157 51 104 140 152 277 152 97 0 168 -32 249 -109 32 -30 61 -55 65
-55 9 0 347 296 361 316 22 31 -178 200 -300 253 -116 51 -190 64 -380 67
-120 2 -198 -1 -235 -10z"/>
<path d="M3000 2500 l0 -790 483 0 c527 0 612 6 754 51 157 50 256 135 305
262 25 63 29 187 9 264 -19 77 -80 165 -148 215 l-58 43 42 42 c148 147 144
406 -9 549 -63 58 -177 111 -292 135 -82 17 -142 19 -588 19 l-498 0 0 -790z
m878 330 c28 -26 28 -61 1 -86 -18 -16 -40 -20 -155 -22 l-134 -4 0 66 0 66
133 0 c120 0 135 -2 155 -20z m47 -544 c37 -16 52 -48 40 -86 -12 -39 -62 -50
-225 -50 l-150 0 0 75 0 75 150 0 c108 0 160 -4 185 -14z"/>
<path d="M1913 1361 c-48 -12 -82 -38 -90 -69 -10 -35 -10 -129 0 -165 11 -41
61 -67 130 -67 107 0 157 44 157 140 l0 40 -70 0 -70 0 0 -35 c0 -26 4 -35 16
-35 14 0 14 -3 4 -15 -7 -9 -23 -15 -34 -13 -18 3 -21 11 -24 66 -3 68 12 87
49 64 26 -17 129 -16 129 1 0 58 -113 108 -197 88z"/>
<path d="M2742 1360 c-51 -12 -82 -47 -82 -91 0 -54 26 -80 95 -94 32 -6 61
-17 63 -24 4 -11 -4 -12 -29 -7 -19 4 -58 10 -86 13 -45 4 -53 2 -53 -12 0
-51 53 -85 134 -85 97 0 146 33 146 99 0 47 -31 77 -89 87 -54 9 -71 14 -71
24 0 5 34 6 75 3 79 -6 86 -2 65 38 -21 39 -106 64 -168 49z"/>
<path d="M2160 1210 l0 -150 55 0 55 0 0 150 0 150 -55 0 -55 0 0 -150z"/>
<path d="M2330 1246 c0 -113 1 -116 29 -148 25 -28 35 -32 93 -36 125 -8 158
33 158 198 l0 100 -55 0 -55 0 0 -99 c0 -102 -11 -131 -45 -118 -11 5 -15 29
-17 109 l-3 103 -52 3 -53 3 0 -115z"/>
<path d="M2980 1210 l0 -151 123 3 122 3 0 35 0 35 -72 3 c-56 2 -73 6 -73 17
0 12 15 15 65 15 l65 0 0 40 0 40 -65 0 c-51 0 -65 3 -65 15 0 12 14 15 70 15
l70 0 0 40 0 40 -120 0 -120 0 0 -150z"/>
<path d="M3282 1213 l3 -148 49 -3 c55 -4 66 5 66 55 0 29 3 32 43 38 52 9 93
29 101 50 9 26 7 84 -4 106 -20 36 -63 49 -165 49 l-96 0 3 -147z m156 45 c-2
-15 -10 -23 -23 -23 -13 0 -21 8 -23 23 -3 18 1 22 23 22 22 0 26 -4 23 -22z"/>
<path d="M3600 1210 l0 -150 55 0 55 0 0 44 0 44 52 7 c89 12 130 76 97 149
-19 40 -66 56 -168 56 l-91 0 0 -150z m157 54 c6 -16 -12 -34 -34 -34 -7 0
-13 11 -13 25 0 18 5 25 20 25 11 0 23 -7 27 -16z"/>
<path d="M3920 1210 l0 -150 120 0 120 0 0 40 0 40 -70 0 c-56 0 -70 3 -70 15
0 12 14 15 65 15 l65 0 0 40 0 40 -65 0 c-51 0 -65 3 -65 15 0 12 14 15 70 15
l70 0 0 40 0 40 -120 0 -120 0 0 -150z"/>
<path d="M2110 820 l0 -152 109 4 c99 3 112 6 135 27 31 29 35 84 9 113 -15
17 -15 19 0 36 24 26 21 56 -7 89 -23 27 -28 28 -135 31 l-111 4 0 -152z m155
60 c0 -9 -11 -16 -27 -18 -23 -3 -28 1 -28 18 0 17 5 21 28 18 16 -2 27 -9 27
-18z m0 -115 c0 -14 -8 -21 -27 -23 -24 -3 -28 0 -28 23 0 23 4 26 28 23 19
-2 27 -9 27 -23z"/>
<path d="M2440 820 l0 -150 50 0 50 0 0 44 c0 62 15 65 42 9 23 -47 24 -48 76
-51 28 -2 52 1 52 6 0 5 -12 31 -26 56 l-26 47 21 23 c23 25 28 83 10 118 -17
32 -71 48 -164 48 l-85 0 0 -150z m156 59 c9 -16 -21 -43 -40 -36 -9 4 -16 16
-16 27 0 15 7 20 24 20 14 0 28 -5 32 -11z"/>
<path d="M2791 825 c-28 -81 -51 -148 -51 -151 0 -2 22 -4 49 -4 41 0 51 4 56
20 5 17 15 20 57 20 41 0 51 -3 55 -20 4 -17 14 -20 54 -20 33 0 49 4 48 13 0
6 -22 73 -48 147 l-48 135 -60 3 -61 3 -51 -146z m127 3 c10 -36 9 -38 -14
-38 -26 0 -30 13 -14 56 13 32 15 30 28 -18z"/>
<path d="M3104 957 c-2 -7 -3 -74 -2 -148 l3 -134 47 -3 47 -3 3 62 3 61 40
-58 c37 -55 43 -59 83 -62 l42 -3 0 150 0 151 -45 0 -45 0 0 -60 c0 -33 -3
-60 -7 -60 -5 0 -24 27 -43 60 -34 58 -36 60 -78 60 -26 0 -45 -5 -48 -13z"/>
<path d="M3440 820 l0 -150 83 0 c90 0 157 22 176 58 6 12 11 55 11 97 0 72
-2 79 -30 105 -35 32 -66 40 -166 40 l-74 0 0 -150z m161 49 c14 -27 6 -99
-13 -110 -7 -5 -21 -9 -30 -9 -16 0 -18 10 -18 70 0 68 1 70 25 70 15 0 29 -8
36 -21z"/>
<path d="M3770 820 l0 -150 50 0 50 0 0 150 0 150 -50 0 -50 0 0 -150z"/>
</g>
</svg>
